HIERARCHY
ROOT Hips
{
	OFFSET -3.958830 18.904000 13.208200
	CHANNELS 6 Xposition Yposition Zposition Zrotation Yrotation Xrotation 
	JOINT LHipJoint
	{
		OFFSET 0.000000 0.000000 0.000000
		CHANNELS 3 Zrotation Yrotation Xrotation
		JOINT LeftUpLeg
		{
			OFFSET 1.800000 -1.400000 0.085000
			CHANNELS 3 Zrotation Yrotation Xrotation
			JOINT LeftLeg
			{
				OFFSET 2.215000 -6.000000 0.000000
				CHANNELS 3 Zrotation Yrotation Xrotation
				JOINT LeftFoot
				{
					OFFSET 2.500000 -6.900000 0.000000
					CHANNELS 3 Zrotation Yrotation Xrotation
					JOINT LeftToeBase
					{
						OFFSET 0.200000 -0.500000 1.950000
						CHANNELS 3 Zrotation Yrotation Xrotation
						End Site
						{
							OFFSET 0.000000 0.000000 0.000000
						}
					}
				}
			}
		}
	}
	JOINT RHipJoint
	{
		OFFSET 0.000000 0.000000 0.000000
		CHANNELS 3 Zrotation Yrotation Xrotation
		JOINT RightUpLeg
		{
			OFFSET -1.800000 -1.400000 0.085000
			CHANNELS 3 Zrotation Yrotation Xrotation
			JOINT RightLeg
			{
				OFFSET -2.215000 -6.000000 0.000000
				CHANNELS 3 Zrotation Yrotation Xrotation
				JOINT RightFoot
				{
					OFFSET -2.500000 -6.900000 0.000000
					CHANNELS 3 Zrotation Yrotation Xrotation
					JOINT RightToeBase
					{
						OFFSET -0.200000 -0.500000 1.950000
						CHANNELS 3 Zrotation Yrotation Xrotation
						End Site
						{
							OFFSET 0.000000 0.000000 0.000000
						}
					}
				}
			}
		}
	}
	JOINT LowerBack
	{
		OFFSET 0.000000 0.000000 0.000000
		CHANNELS 3 Zrotation Yrotation Xrotation
		JOINT Spine
		{
			OFFSET -0.087000 1.940000 -0.288900
			CHANNELS 3 Zrotation Yrotation Xrotation
			JOINT Spine1
			{
				OFFSET 0.000000 1.950000 0.060000
				CHANNELS 3 Zrotation Yrotation Xrotation
				JOINT Neck
				{
					OFFSET 0.000000 0.000000 0.000000
					CHANNELS 3 Zrotation Yrotation Xrotation
					JOINT Neck1
					{
						OFFSET 0.000000 1.600000 0.340000
						CHANNELS 3 Zrotation Yrotation Xrotation
						JOINT Head
						{
							OFFSET 0.000000 1.667000 -0.240000
							CHANNELS 3 Zrotation Yrotation Xrotation
							End Site
							{
								OFFSET 0.000000 0.000000 0.000000
							}
						}
					}
				}
				JOINT LeftShoulder
				{
					OFFSET 0.000000 0.000000 0.000000
					CHANNELS 3 Zrotation Yrotation Xrotation
					JOINT LeftArm
					{
						OFFSET 2.700000 1.550000 -0.730000
						CHANNELS 3 Zrotation Yrotation Xrotation
						JOINT LeftForeArm
						{
							OFFSET 5.450000 0.000000 0.000000
							CHANNELS 3 Zrotation Yrotation Xrotation
							JOINT LeftHand
							{
								OFFSET 3.450000 0.000000 0.000000
								CHANNELS 3 Zrotation Yrotation Xrotation
								JOINT LeftHandIndex1
								{
									OFFSET 0.750000 0.000000 0.000000
									CHANNELS 3 Zrotation Yrotation Xrotation
									End Site
									{
										OFFSET 0.000000 0.000000 0.000000
									}
								}
							}
						}
					}
				}
				JOINT RightShoulder
				{
					OFFSET 0.000000 0.000000 0.000000
					CHANNELS 3 Zrotation Yrotation Xrotation
					JOINT RightArm
					{
						OFFSET -2.700000 1.550000 -0.730000
						CHANNELS 3 Zrotation Yrotation Xrotation
						JOINT RightForeArm
						{
							OFFSET -5.450000 0.000000 0.000000
							CHANNELS 3 Zrotation Yrotation Xrotation
							JOINT RightHand
							{
								OFFSET -3.450000 0.000000 0.000000
								CHANNELS 3 Zrotation Yrotation Xrotation
								JOINT RightHandIndex1
								{
									OFFSET -0.750000 0.000000 0.000000
									CHANNELS 3 Zrotation Yrotation Xrotation
									End Site
									{
										OFFSET 0.000000 0.000000 0.000000
									}
								}
							}
						}
					}
				}
			}
		}
	}
}
MOTION
Frames: 6
Frame Time: 0.016667
-1.417350 17.835470 -0.313920 6.073823 45.549670 2.332379 -14.961526 11.372472 2.437922 -1.904689 -2.460785 -12.842333 -4.062329 3.595221 7.701094 -0.561476 2.787600 3.622792 0.362560 0.369950 0.204710 18.643494 -11.674710 3.051453 -19.216242 0.326730 11.926612 8.203944 -6.371794 2.446246 -0.752430 -6.489409 2.176167 0.437050 0.175330 0.079550 -5.757511 2.305358 -7.046385 14.649013 9.388650 5.138266 1.378540 9.482654 27.422337 1.382501 -7.254008 -10.620189 -13.537509 5.709568 38.452217 -5.389450 1.655120 -6.587890 -13.775678 -11.801705 9.427308 -37.684967 -20.096379 16.302599 154.335753 -45.259337 -128.830860 -3.903591 3.360850 -0.011010 0.212240 -0.118220 0.094990 12.724736 22.395194 5.676062 34.936557 46.990899 27.482006 -133.954957 52.734308 -110.808610 1.807973 -1.918049 -0.125200 0.212230 -0.020400 -0.077590 
-1.426790 17.825100 -0.311540 6.160932 45.961418 2.316100 -14.969584 11.405099 2.437606 -1.813310 -2.434111 -12.959488 -4.183440 3.659059 7.849942 -0.544174 2.792431 3.618620 0.348850 0.349990 0.200000 18.633013 -11.660549 3.035275 -19.276905 0.267694 12.001684 8.545891 -6.500419 2.749054 -0.754538 -6.494181 2.176579 0.415430 0.166380 0.073390 -5.763906 2.216249 -7.020046 14.748947 9.163379 4.868123 0.976858 9.124471 26.986890 1.349201 -7.354413 -10.696966 -14.051380 6.179234 39.505383 -5.314830 1.734760 -6.179600 -14.203225 -10.866452 9.232731 -39.087173 -18.155845 15.493681 156.966799 -47.564757 -136.711531 -3.874295 3.413935 0.000020 0.199200 -0.112140 0.090930 13.162195 21.217497 5.870560 36.968987 45.761927 26.872832 -139.337443 55.337451 -121.174187 1.773207 -2.060557 -0.124200 0.206800 -0.019050 -0.078150 
-1.434160 17.815340 -0.306810 6.390494 46.152443 2.289318 -14.973003 11.416703 2.425155 -1.751780 -2.371202 -12.865489 -4.448063 3.767565 8.036925 -0.522343 2.819105 3.605147 0.346200 0.346830 0.198810 18.631882 -11.635719 3.029323 -19.539876 0.294260 12.197373 8.877758 -6.608045 2.852072 -0.765696 -6.526413 2.166194 0.404450 0.156110 0.069720 -5.771659 2.153644 -6.989237 14.779508 9.032954 4.582136 0.687380 8.876396 26.740246 1.246303 -7.472196 -10.667683 -14.585832 6.625514 40.611439 -5.190210 1.789320 -5.924620 -14.210800 -9.736935 9.051762 -40.197251 -16.530611 15.045549 159.515291 -48.623904 -142.806482 -3.843215 3.462085 0.006700 0.186980 -0.103140 0.090350 13.322656 19.935527 5.841903 38.852506 44.561723 26.075440 -145.319740 57.853364 -131.813661 1.719588 -2.156117 -0.117930 0.202080 -0.022290 -0.075950 
-1.442780 17.807340 -0.306970 6.439530 46.281817 2.268425 -14.978458 11.441959 2.420232 -1.669515 -2.340368 -12.964797 -4.702538 3.873386 8.281216 -0.506062 2.836738 3.591819 0.347560 0.346450 0.204600 18.627551 -11.609250 3.015487 -19.606448 0.279799 12.232749 9.094309 -6.676294 2.993610 -0.774163 -6.523077 2.165133 0.394920 0.139230 0.066400 -5.768813 2.066065 -6.953725 14.837350 8.858301 4.230406 0.564399 8.533627 26.232422 1.106551 -7.642126 -10.608456 -15.234998 7.249861 41.768040 -5.215560 2.006720 -5.735060 -14.045796 -8.343223 8.796456 -41.902639 -14.490095 14.180853 163.097872 -51.176289 -152.121108 -3.794227 3.526095 0.018470 0.171370 -0.089630 0.088570 13.357660 18.390049 5.730289 41.084281 43.112768 24.944585 -152.995702 60.599188 -144.619112 1.654522 -2.188756 -0.111840 0.195420 -0.028140 -0.077540 
-1.454560 17.799990 -0.304010 6.640938 46.544811 2.303560 -14.979519 11.454994 2.410612 -1.594668 -2.304819 -12.997905 -4.938112 3.961821 8.431951 -0.493716 2.853495 3.580644 0.352980 0.350180 0.211330 18.631200 -11.583955 3.006311 -19.622366 0.273121 12.404268 9.240833 -6.722972 3.040945 -0.789629 -6.528508 2.161981 0.389250 0.124820 0.062830 -5.788849 1.999732 -6.918806 14.955557 8.679538 3.948240 0.184146 8.288727 25.861964 0.902115 -7.864962 -10.502631 -16.020969 7.817638 42.846433 -5.108910 2.104980 -5.702940 -13.972802 -6.923002 8.508050 -43.031680 -12.755915 13.529676 166.249736 -52.144971 -158.984528 -3.752399 3.566435 0.032400 0.154640 -0.075690 0.089040 13.582421 16.866558 5.632354 43.428718 41.501341 23.737961 -161.529615 62.680500 -157.896716 1.602442 -2.141407 -0.106980 0.193840 -0.034230 -0.078250 
-1.466850 17.790440 -0.301320 6.787525 46.926187 2.271596 -14.984708 11.478640 2.401679 -1.429181 -2.258435 -13.048034 -5.216421 4.068612 8.597084 -0.473440 2.874419 3.566217 0.344110 0.337530 0.208460 18.627940 -11.569557 2.991139 -19.587442 0.219981 12.594171 9.308351 -6.782855 3.180991 -0.799921 -6.527568 2.164426 0.370200 0.112050 0.059130 -5.805793 1.935483 -6.885778 15.058197 8.566466 3.650750 -0.166999 8.089835 25.219320 0.797449 -7.880267 -10.414104 -16.465740 8.391182 44.440152 -4.912960 2.301040 -5.205590 -14.125011 -5.948259 8.178129 -43.715978 -11.085214 12.161142 169.975413 -54.508054 -167.411281 -3.708015 3.592863 0.046230 0.139630 -0.063810 0.085400 13.826260 15.625585 5.556632 45.120978 39.156814 21.938879 -171.179677 63.875531 -172.480916 1.592237 -2.023803 -0.102220 0.186680 -0.034150 -0.078660 
